# xmcd CD database file
#
# Track frame offsets:
#	150
#	4239
#	57010
#	68549
#	120623
#	195200
#
# Disc length: 2653 seconds
#
# Revision: 0
# Processed by: cddbd v1.5.2PL0 Copyright (c) Steve Scherf et al.
# Submitted via: CDex 1.70beta2
#
DISCID=400a5b06
DTITLE=Return To Forever  - Dramaten Stockholm Jazzdays Stockholm, Sweden 17-Sep-72
DYEAR=1972
DGENRE=Jazz
TTITLE0=Band Introductions By Chick Corea
TTITLE1=Spain
TTITLE2=Childrens Song
TTITLE3=Noon Song Pt 1
TTITLE4=Noon Song Pt 2
TTITLE5=Announcer
EXTD=YEAR: 1972
EXTT0=
EXTT1=
EXTT2=
EXTT3=
EXTT4=
EXTT5=
PLAYORDER=
